<svg xmlns="http://www.w3.org/2000/svg" width="1200" height="675" viewBox="0 0 1200 675" role="img" aria-label="Data4You for Johnson &amp; Johnson thumbnail">
  <defs>
    <linearGradient id="bg" x1="0" y1="0" x2="1" y2="1">
      <stop offset="0" stop-color="#050607"/>
      <stop offset="0.6" stop-color="#0E1013"/>
      <stop offset="1" stop-color="#14171B"/>
    </linearGradient>
    <pattern id="grid" width="52" height="52" patternUnits="userSpaceOnUse">
      <path d="M52 0H0V52" fill="none" stroke="#FFFFFF" stroke-opacity="0.06" stroke-width="2"/>
    </pattern>
    <filter id="noise" x="-20%" y="-20%" width="140%" height="140%">
      <feTurbulence type="fractalNoise" baseFrequency="0.85" numOctaves="3" stitchTiles="stitch" />
      <feColorMatrix type="matrix"
        values="1 0 0 0 0
                0 1 0 0 0
                0 0 1 0 0
                0 0 0 0.10 0"/>
    </filter>
    <filter id="shadow" x="-20%" y="-20%" width="140%" height="140%">
      <feDropShadow dx="0" dy="10" stdDeviation="14" flood-color="#000000" flood-opacity="0.45"/>
    </filter>
  </defs>

  <rect width="1200" height="675" fill="url(#bg)"/>
  <rect width="1200" height="675" fill="url(#grid)"/>
  <rect width="1200" height="675" filter="url(#noise)" opacity="0.55"/>

  <!-- Data dashboard -->
  <g transform="translate(650 120)" filter="url(#shadow)">
    <rect x="0" y="0" rx="18" ry="18" width="500" height="390" fill="#0A0B0D" opacity="0.88" stroke="#2B2F35"/>

    <!-- Top metrics -->
    <g transform="translate(26 28)">
      <rect x="0" y="0" width="148" height="74" rx="16" fill="#0E1013" stroke="#2B2F35"/>
      <rect x="16" y="18" width="74" height="10" rx="5" fill="#FFFFFF" opacity="0.55"/>
      <rect x="16" y="40" width="110" height="16" rx="8" fill="#FFFFFF" opacity="0.16"/>

      <rect x="170" y="0" width="148" height="74" rx="16" fill="#0E1013" stroke="#2B2F35"/>
      <rect x="186" y="18" width="82" height="10" rx="5" fill="#FFFFFF" opacity="0.55"/>
      <rect x="186" y="40" width="100" height="16" rx="8" fill="#FFFFFF" opacity="0.16"/>

      <rect x="340" y="0" width="134" height="74" rx="16" fill="#0E1013" stroke="#2B2F35"/>
      <rect x="356" y="18" width="70" height="10" rx="5" fill="#FFFFFF" opacity="0.55"/>
      <rect x="356" y="40" width="92" height="16" rx="8" fill="#FFFFFF" opacity="0.16"/>
    </g>

    <!-- Chart -->
    <g transform="translate(26 124)">
      <rect x="0" y="0" width="474" height="160" rx="16" fill="#07080A" stroke="#1F2328"/>
      <path d="M24 124 C 78 92, 108 110, 148 78 S 236 56, 286 82 S 360 132, 426 86"
        fill="none" stroke="#FFFFFF" stroke-opacity="0.30" stroke-width="4" stroke-linecap="round"/>
      <path d="M24 134 C 80 114, 116 124, 156 98 S 242 82, 294 104 S 370 150, 426 112"
        fill="none" stroke="#FFFFFF" stroke-opacity="0.16" stroke-width="4" stroke-linecap="round"/>
      <g fill="#FFFFFF" opacity="0.20">
        <rect x="24" y="20" width="120" height="10" rx="5"/>
        <rect x="24" y="44" width="90" height="10" rx="5"/>
      </g>
    </g>

    <!-- Table -->
    <g transform="translate(26 304)">
      <rect x="0" y="0" width="474" height="58" rx="16" fill="#0E1013" stroke="#2B2F35"/>
      <rect x="16" y="18" width="120" height="10" rx="5" fill="#FFFFFF" opacity="0.22"/>
      <rect x="160" y="18" width="90" height="10" rx="5" fill="#FFFFFF" opacity="0.18"/>
      <rect x="272" y="18" width="72" height="10" rx="5" fill="#FFFFFF" opacity="0.18"/>
      <rect x="360" y="18" width="84" height="10" rx="5" fill="#FFFFFF" opacity="0.18"/>
    </g>
  </g>

  <!-- Text -->
  <g transform="translate(90 200)">
    <text x="0" y="0" fill="#FFFFFF" font-size="52" font-weight="800"
      font-family="Montserrat, Inter, system-ui, -apple-system, Segoe UI, Arial, sans-serif">
      Data4You
    </text>
    <text x="0" y="48" fill="#FFFFFF" opacity="0.72" font-size="22" font-weight="600"
      font-family="Montserrat, Inter, system-ui, -apple-system, Segoe UI, Arial, sans-serif">
      Next.js " Recoil " API integration " Testing
    </text>
    <g transform="translate(0 92)">
      <rect x="0" y="0" rx="16" ry="16" width="150" height="38" fill="#0A0B0D" stroke="#2B2F35"/>
      <text x="18" y="26" fill="#FFFFFF" opacity="0.86" font-size="16" font-weight="700"
        font-family="Montserrat, Inter, system-ui, -apple-system, Segoe UI, Arial, sans-serif">Next.js</text>
      <rect x="166" y="0" rx="16" ry="16" width="142" height="38" fill="#0A0B0D" stroke="#2B2F35"/>
      <text x="184" y="26" fill="#FFFFFF" opacity="0.86" font-size="16" font-weight="700"
        font-family="Montserrat, Inter, system-ui, -apple-system, Segoe UI, Arial, sans-serif">Recoil</text>
      <rect x="324" y="0" rx="16" ry="16" width="170" height="38" fill="#0A0B0D" stroke="#2B2F35"/>
      <text x="342" y="26" fill="#FFFFFF" opacity="0.86" font-size="16" font-weight="700"
        font-family="Montserrat, Inter, system-ui, -apple-system, Segoe UI, Arial, sans-serif">Jest</text>
    </g>
  </g>

  <rect x="0" y="610" width="1200" height="65" fill="#FFFFFF" opacity="0.03"/>
</svg>
