<svg xmlns="http://www.w3.org/2000/svg" width="1200" height="675" viewBox="0 0 1200 675" role="img" aria-label="Don Mystic project thumbnail (black and white)">
  <defs>
    <linearGradient id="bg" x1="0" y1="0" x2="1" y2="1">
      <stop offset="0" stop-color="#050607"/>
      <stop offset="0.55" stop-color="#0D0F12"/>
      <stop offset="1" stop-color="#14171B"/>
    </linearGradient>
    <filter id="noise" x="-20%" y="-20%" width="140%" height="140%">
      <feTurbulence type="fractalNoise" baseFrequency="0.8" numOctaves="3" stitchTiles="stitch" />
      <feColorMatrix type="matrix"
        values="1 0 0 0 0
                0 1 0 0 0
                0 0 1 0 0
                0 0 0 0.11 0"/>
    </filter>
    <pattern id="grid" width="56" height="56" patternUnits="userSpaceOnUse">
      <path d="M56 0H0V56" fill="none" stroke="#FFFFFF" stroke-opacity="0.06" stroke-width="2"/>
    </pattern>
    <filter id="shadow" x="-20%" y="-20%" width="140%" height="140%">
      <feDropShadow dx="0" dy="10" stdDeviation="14" flood-color="#000000" flood-opacity="0.45"/>
    </filter>
  </defs>

  <rect width="1200" height="675" fill="url(#bg)"/>
  <rect width="1200" height="675" fill="url(#grid)"/>
  <rect width="1200" height="675" filter="url(#noise)" opacity="0.55"/>

  <!-- Subtle waves -->
  <g opacity="0.20" fill="none" stroke="#FFFFFF" stroke-width="2">
    <path d="M-40 460 C 120 430, 240 490, 400 460 S 680 430, 840 460 S 1120 500, 1240 460" />
    <path d="M-40 500 C 140 470, 260 530, 420 500 S 700 470, 860 500 S 1100 540, 1240 500" />
    <path d="M-40 540 C 160 510, 280 570, 440 540 S 720 510, 880 540 S 1080 580, 1240 540" />
  </g>

  <!-- Pavilion silhouette -->
  <g transform="translate(720 240)" filter="url(#shadow)">
    <rect x="0" y="0" rx="18" ry="18" width="390" height="260" fill="#0A0B0D" opacity="0.88" stroke="#2B2F35"/>
    <path d="M40 140 L195 55 L350 140" fill="none" stroke="#FFFFFF" stroke-opacity="0.55" stroke-width="6" stroke-linecap="round" stroke-linejoin="round"/>
    <path d="M70 145 L70 210 M140 120 L140 210 M210 120 L210 210 M280 120 L280 210 M320 145 L320 210"
      stroke="#FFFFFF" stroke-opacity="0.22" stroke-width="6" stroke-linecap="round"/>
    <path d="M50 215 H340" stroke="#FFFFFF" stroke-opacity="0.45" stroke-width="6" stroke-linecap="round"/>
  </g>

  <!-- Text block -->
  <g transform="translate(90 170)">
    <text x="0" y="0" fill="#FFFFFF" font-size="54" font-weight="800"
      font-family="Montserrat, Inter, system-ui, -apple-system, Segoe UI, Arial, sans-serif" letter-spacing="0.4">
      Don Mystic
    </text>
    <text x="0" y="48" fill="#FFFFFF" opacity="0.72" font-size="22" font-weight="600"
      font-family="Montserrat, Inter, system-ui, -apple-system, Segoe UI, Arial, sans-serif">
      Luxury Floating Pavilion " Events " Experiences
    </text>

    <g transform="translate(0 92)" opacity="0.98">
      <rect x="0" y="0" rx="16" ry="16" width="132" height="38" fill="#0A0B0D" stroke="#2B2F35"/>
      <text x="18" y="26" fill="#FFFFFF" opacity="0.86" font-size="16" font-weight="700"
        font-family="Montserrat, Inter, system-ui, -apple-system, Segoe UI, Arial, sans-serif">React</text>

      <rect x="148" y="0" rx="16" ry="16" width="156" height="38" fill="#0A0B0D" stroke="#2B2F35"/>
      <text x="166" y="26" fill="#FFFFFF" opacity="0.86" font-size="16" font-weight="700"
        font-family="Montserrat, Inter, system-ui, -apple-system, Segoe UI, Arial, sans-serif">Responsive</text>

      <rect x="320" y="0" rx="16" ry="16" width="176" height="38" fill="#0A0B0D" stroke="#2B2F35"/>
      <text x="338" y="26" fill="#FFFFFF" opacity="0.86" font-size="16" font-weight="700"
        font-family="Montserrat, Inter, system-ui, -apple-system, Segoe UI, Arial, sans-serif">Gallery</text>
    </g>
  </g>

  <rect x="0" y="610" width="1200" height="65" fill="#FFFFFF" opacity="0.03"/>
</svg>
