<svg xmlns="http://www.w3.org/2000/svg" width="1200" height="675" viewBox="0 0 1200 675" role="img" aria-label="Don Mystic project thumbnail">
  <defs>
    <linearGradient id="bg" x1="0" y1="0" x2="1" y2="1">
      <stop offset="0" stop-color="#060A12"/>
      <stop offset="0.55" stop-color="#0B1B2E"/>
      <stop offset="1" stop-color="#0A3D62"/>
    </linearGradient>

    <linearGradient id="gold" x1="0" y1="0" x2="1" y2="0">
      <stop offset="0" stop-color="#F7D37A"/>
      <stop offset="1" stop-color="#C79B2A"/>
    </linearGradient>

    <filter id="softNoise" x="-20%" y="-20%" width="140%" height="140%">
      <feTurbulence type="fractalNoise" baseFrequency="0.8" numOctaves="3" stitchTiles="stitch" />
      <feColorMatrix type="matrix"
        values="1 0 0 0 0
                0 1 0 0 0
                0 0 1 0 0
                0 0 0 0.12 0"/>
    </filter>

    <filter id="shadow" x="-20%" y="-20%" width="140%" height="140%">
      <feDropShadow dx="0" dy="10" stdDeviation="14" flood-color="#000000" flood-opacity="0.35"/>
    </filter>
  </defs>

  <!-- Background -->
  <rect width="1200" height="675" fill="url(#bg)"/>
  <rect width="1200" height="675" filter="url(#softNoise)" opacity="0.55"/>

  <!-- Subtle waves -->
  <g opacity="0.22" fill="none" stroke="#EAF2FF" stroke-width="2">
    <path d="M-40 460 C 120 430, 240 490, 400 460 S 680 430, 840 460 S 1120 500, 1240 460" />
    <path d="M-40 500 C 140 470, 260 530, 420 500 S 700 470, 860 500 S 1100 540, 1240 500" />
    <path d="M-40 540 C 160 510, 280 570, 440 540 S 720 510, 880 540 S 1080 580, 1240 540" />
  </g>

  <!-- Accent corner -->
  <circle cx="1040" cy="120" r="170" fill="url(#gold)" opacity="0.10"/>
  <circle cx="1040" cy="120" r="90" fill="url(#gold)" opacity="0.12"/>

  <!-- Pavilion silhouette -->
  <g transform="translate(720 240)" filter="url(#shadow)">
    <rect x="0" y="0" rx="18" ry="18" width="390" height="260" fill="#0B1324" opacity="0.78" stroke="#1D2B44"/>
    <path d="M40 140 L195 55 L350 140" fill="none" stroke="url(#gold)" stroke-width="6" stroke-linecap="round" stroke-linejoin="round" opacity="0.9"/>
    <path d="M70 145 L70 210 M140 120 L140 210 M210 120 L210 210 M280 120 L280 210 M320 145 L320 210"
      stroke="#EAF2FF" stroke-opacity="0.28" stroke-width="6" stroke-linecap="round"/>
    <path d="M50 215 H340" stroke="url(#gold)" stroke-width="6" stroke-linecap="round" opacity="0.75"/>
    <path d="M35 235 C 95 225, 145 245, 205 235 S 315 225, 375 235"
      fill="none" stroke="#EAF2FF" stroke-opacity="0.22" stroke-width="4" stroke-linecap="round"/>
  </g>

  <!-- Text block -->
  <g transform="translate(90 165)">
    <text x="0" y="0" fill="#EAF2FF" font-size="54" font-weight="800" font-family="Montserrat, Inter, system-ui, -apple-system, Segoe UI, Arial, sans-serif" letter-spacing="0.4">
      Don Mystic
    </text>
    <text x="0" y="48" fill="#B9C9E6" font-size="22" font-weight="600" font-family="Montserrat, Inter, system-ui, -apple-system, Segoe UI, Arial, sans-serif">
      Luxury Floating Pavilion " Events " Experiences
    </text>

    <!-- Tags -->
    <g transform="translate(0 92)">
      <rect x="0" y="0" rx="16" ry="16" width="132" height="38" fill="#0B1324" stroke="#2A3A5C" opacity="0.95"/>
      <text x="18" y="26" fill="#EAF2FF" font-size="16" font-weight="700" font-family="Montserrat, Inter, system-ui, -apple-system, Segoe UI, Arial, sans-serif">React</text>

      <rect x="148" y="0" rx="16" ry="16" width="156" height="38" fill="#0B1324" stroke="#2A3A5C" opacity="0.95"/>
      <text x="166" y="26" fill="#EAF2FF" font-size="16" font-weight="700" font-family="Montserrat, Inter, system-ui, -apple-system, Segoe UI, Arial, sans-serif">Responsive</text>

      <rect x="320" y="0" rx="16" ry="16" width="176" height="38" fill="#0B1324" stroke="#2A3A5C" opacity="0.95"/>
      <text x="338" y="26" fill="#EAF2FF" font-size="16" font-weight="700" font-family="Montserrat, Inter, system-ui, -apple-system, Segoe UI, Arial, sans-serif">Gallery</text>
    </g>
  </g>

  <!-- Bottom shine -->
  <rect x="0" y="610" width="1200" height="65" fill="#FFFFFF" opacity="0.03"/>
</svg>
