<svg xmlns="http://www.w3.org/2000/svg" width="1200" height="675" viewBox="0 0 1200 675" role="img" aria-label="Envision Enterprise Suite thumbnail">
  <defs>
    <linearGradient id="bg" x1="0" y1="0" x2="1" y2="1">
      <stop offset="0" stop-color="#050607"/>
      <stop offset="0.6" stop-color="#0E1013"/>
      <stop offset="1" stop-color="#14171B"/>
    </linearGradient>
    <pattern id="grid" width="52" height="52" patternUnits="userSpaceOnUse">
      <path d="M52 0H0V52" fill="none" stroke="#FFFFFF" stroke-opacity="0.06" stroke-width="2"/>
    </pattern>
    <filter id="noise" x="-20%" y="-20%" width="140%" height="140%">
      <feTurbulence type="fractalNoise" baseFrequency="0.85" numOctaves="3" stitchTiles="stitch" />
      <feColorMatrix type="matrix"
        values="1 0 0 0 0
                0 1 0 0 0
                0 0 1 0 0
                0 0 0 0.10 0"/>
    </filter>
    <filter id="shadow" x="-20%" y="-20%" width="140%" height="140%">
      <feDropShadow dx="0" dy="10" stdDeviation="14" flood-color="#000000" flood-opacity="0.45"/>
    </filter>
  </defs>

  <rect width="1200" height="675" fill="url(#bg)"/>
  <rect width="1200" height="675" fill="url(#grid)"/>
  <rect width="1200" height="675" filter="url(#noise)" opacity="0.55"/>

  <!-- Enterprise suite modules -->
  <g transform="translate(650 120)" filter="url(#shadow)">
    <rect x="0" y="0" rx="18" ry="18" width="500" height="390" fill="#0A0B0D" opacity="0.88" stroke="#2B2F35"/>

    <!-- Left nav -->
    <rect x="26" y="28" width="132" height="334" rx="16" fill="#07080A" stroke="#1F2328"/>
    <g transform="translate(44 50)" fill="#FFFFFF" opacity="0.22">
      <rect x="0" y="0" width="92" height="10" rx="5"/>
      <rect x="0" y="34" width="76" height="10" rx="5"/>
      <rect x="0" y="68" width="88" height="10" rx="5"/>
      <rect x="0" y="102" width="64" height="10" rx="5"/>
      <rect x="0" y="136" width="90" height="10" rx="5"/>
      <rect x="0" y="170" width="72" height="10" rx="5"/>
      <rect x="0" y="204" width="86" height="10" rx="5"/>
    </g>

    <!-- Main tiles -->
    <g transform="translate(176 28)">
      <rect x="0" y="0" width="298" height="50" rx="16" fill="#07080A" stroke="#2B2F35"/>
      <rect x="16" y="18" width="160" height="10" rx="5" fill="#FFFFFF" opacity="0.55"/>
      <!-- Tiles -->
      <g transform="translate(0 72)">
        <rect x="0" y="0" width="140" height="120" rx="18" fill="#0E1013" stroke="#2B2F35"/>
        <rect x="16" y="22" width="78" height="10" rx="5" fill="#FFFFFF" opacity="0.55"/>
        <rect x="16" y="46" width="110" height="10" rx="5" fill="#FFFFFF" opacity="0.18"/>
        <circle cx="110" cy="86" r="18" fill="none" stroke="#FFFFFF" stroke-opacity="0.25" stroke-width="4"/>
        <path d="M110 74 V86 L122 92" stroke="#FFFFFF" stroke-opacity="0.25" stroke-width="4" stroke-linecap="round" stroke-linejoin="round"/>

        <rect x="158" y="0" width="140" height="120" rx="18" fill="#0E1013" stroke="#2B2F35"/>
        <rect x="174" y="22" width="86" height="10" rx="5" fill="#FFFFFF" opacity="0.55"/>
        <rect x="174" y="46" width="100" height="10" rx="5" fill="#FFFFFF" opacity="0.18"/>
        <path d="M202 84 H254" stroke="#FFFFFF" stroke-opacity="0.22" stroke-width="6" stroke-linecap="round"/>
        <path d="M228 62 V106" stroke="#FFFFFF" stroke-opacity="0.22" stroke-width="6" stroke-linecap="round"/>

        <rect x="0" y="140" width="298" height="122" rx="18" fill="#07080A" stroke="#1F2328"/>
        <rect x="16" y="162" width="120" height="10" rx="5" fill="#FFFFFF" opacity="0.35"/>
        <rect x="16" y="186" width="250" height="10" rx="5" fill="#FFFFFF" opacity="0.16"/>
        <rect x="16" y="210" width="210" height="10" rx="5" fill="#FFFFFF" opacity="0.14"/>
      </g>
    </g>
  </g>

  <!-- Text -->
  <g transform="translate(90 200)">
    <text x="0" y="0" fill="#FFFFFF" font-size="52" font-weight="800"
      font-family="Montserrat, Inter, system-ui, -apple-system, Segoe UI, Arial, sans-serif">
      Envision
    </text>
    <text x="0" y="48" fill="#FFFFFF" opacity="0.72" font-size="22" font-weight="600"
      font-family="Montserrat, Inter, system-ui, -apple-system, Segoe UI, Arial, sans-serif">
      Angular " Enterprise UI " Security " Logistics
    </text>
    <g transform="translate(0 92)">
      <rect x="0" y="0" rx="16" ry="16" width="156" height="38" fill="#0A0B0D" stroke="#2B2F35"/>
      <text x="18" y="26" fill="#FFFFFF" opacity="0.86" font-size="16" font-weight="700"
        font-family="Montserrat, Inter, system-ui, -apple-system, Segoe UI, Arial, sans-serif">Angular</text>
      <rect x="172" y="0" rx="16" ry="16" width="170" height="38" fill="#0A0B0D" stroke="#2B2F35"/>
      <text x="190" y="26" fill="#FFFFFF" opacity="0.86" font-size="16" font-weight="700"
        font-family="Montserrat, Inter, system-ui, -apple-system, Segoe UI, Arial, sans-serif">Enterprise</text>
      <rect x="358" y="0" rx="16" ry="16" width="166" height="38" fill="#0A0B0D" stroke="#2B2F35"/>
      <text x="376" y="26" fill="#FFFFFF" opacity="0.86" font-size="16" font-weight="700"
        font-family="Montserrat, Inter, system-ui, -apple-system, Segoe UI, Arial, sans-serif">Security</text>
    </g>
  </g>

  <rect x="0" y="610" width="1200" height="65" fill="#FFFFFF" opacity="0.03"/>
</svg>
