<svg xmlns="http://www.w3.org/2000/svg" width="1200" height="675" viewBox="0 0 1200 675" role="img" aria-label="User Onboarding Optimization - JODO thumbnail">
  <defs>
    <linearGradient id="bg" x1="0" y1="0" x2="1" y2="1">
      <stop offset="0" stop-color="#050607"/>
      <stop offset="0.6" stop-color="#0E1013"/>
      <stop offset="1" stop-color="#14171B"/>
    </linearGradient>
    <pattern id="grid" width="52" height="52" patternUnits="userSpaceOnUse">
      <path d="M52 0H0V52" fill="none" stroke="#FFFFFF" stroke-opacity="0.06" stroke-width="2"/>
    </pattern>
    <filter id="noise" x="-20%" y="-20%" width="140%" height="140%">
      <feTurbulence type="fractalNoise" baseFrequency="0.85" numOctaves="3" stitchTiles="stitch" />
      <feColorMatrix type="matrix"
        values="1 0 0 0 0
                0 1 0 0 0
                0 0 1 0 0
                0 0 0 0.10 0"/>
    </filter>
    <filter id="shadow" x="-20%" y="-20%" width="140%" height="140%">
      <feDropShadow dx="0" dy="10" stdDeviation="14" flood-color="#000000" flood-opacity="0.45"/>
    </filter>
  </defs>

  <rect width="1200" height="675" fill="url(#bg)"/>
  <rect width="1200" height="675" fill="url(#grid)"/>
  <rect width="1200" height="675" filter="url(#noise)" opacity="0.55"/>

  <!-- Phone / form -->
  <g transform="translate(720 110)" filter="url(#shadow)">
    <rect x="0" y="0" rx="26" ry="26" width="360" height="455" fill="#07080A" stroke="#1F2328" opacity="0.95"/>
    <rect x="26" y="46" rx="18" ry="18" width="308" height="360" fill="#0E1013" stroke="#2B2F35"/>

    <!-- Header -->
    <rect x="52" y="78" width="190" height="12" rx="6" fill="#FFFFFF" opacity="0.65"/>
    <rect x="52" y="102" width="140" height="10" rx="5" fill="#FFFFFF" opacity="0.25"/>

    <!-- Fields -->
    <g transform="translate(52 140)">
      <rect x="0" y="0" width="256" height="44" rx="14" fill="#07080A" stroke="#2B2F35"/>
      <rect x="14" y="16" width="120" height="10" rx="5" fill="#FFFFFF" opacity="0.40"/>

      <rect x="0" y="62" width="256" height="44" rx="14" fill="#07080A" stroke="#2B2F35"/>
      <rect x="14" y="78" width="160" height="10" rx="5" fill="#FFFFFF" opacity="0.40"/>

      <rect x="0" y="124" width="256" height="44" rx="14" fill="#07080A" stroke="#2B2F35"/>
      <rect x="14" y="140" width="172" height="10" rx="5" fill="#FFFFFF" opacity="0.40"/>

      <!-- Autofill chip -->
      <rect x="0" y="190" width="160" height="34" rx="17" fill="#0A0B0D" stroke="#2B2F35"/>
      <text x="18" y="23" fill="#FFFFFF" opacity="0.84" font-size="14" font-weight="700"
        font-family="Montserrat, Inter, system-ui, -apple-system, Segoe UI, Arial, sans-serif">Auto pre-fill</text>

      <!-- CTA -->
      <rect x="0" y="242" width="256" height="46" rx="16" fill="#FFFFFF" opacity="0.10" stroke="#2B2F35"/>
      <rect x="78" y="259" width="100" height="12" rx="6" fill="#FFFFFF" opacity="0.70"/>
    </g>

    <!-- Progress dots -->
    <g transform="translate(140 420)" fill="#FFFFFF" opacity="0.28">
      <circle cx="0" cy="0" r="6"/>
      <circle cx="22" cy="0" r="6" opacity="0.55"/>
      <circle cx="44" cy="0" r="6" opacity="0.55"/>
    </g>
  </g>

  <!-- Text -->
  <g transform="translate(90 200)">
    <text x="0" y="0" fill="#FFFFFF" font-size="52" font-weight="800"
      font-family="Montserrat, Inter, system-ui, -apple-system, Segoe UI, Arial, sans-serif">
      User Onboarding Optimization
    </text>
    <text x="0" y="48" fill="#FFFFFF" opacity="0.72" font-size="22" font-weight="600"
      font-family="Montserrat, Inter, system-ui, -apple-system, Segoe UI, Arial, sans-serif">
      Pre-fill " Validation " Conversion lift " JODO
    </text>
    <g transform="translate(0 92)">
      <rect x="0" y="0" rx="16" ry="16" width="148" height="38" fill="#0A0B0D" stroke="#2B2F35"/>
      <text x="18" y="26" fill="#FFFFFF" opacity="0.86" font-size="16" font-weight="700"
        font-family="Montserrat, Inter, system-ui, -apple-system, Segoe UI, Arial, sans-serif">Forms</text>
      <rect x="164" y="0" rx="16" ry="16" width="170" height="38" fill="#0A0B0D" stroke="#2B2F35"/>
      <text x="182" y="26" fill="#FFFFFF" opacity="0.86" font-size="16" font-weight="700"
        font-family="Montserrat, Inter, system-ui, -apple-system, Segoe UI, Arial, sans-serif">UX</text>
      <rect x="350" y="0" rx="16" ry="16" width="210" height="38" fill="#0A0B0D" stroke="#2B2F35"/>
      <text x="368" y="26" fill="#FFFFFF" opacity="0.86" font-size="16" font-weight="700"
        font-family="Montserrat, Inter, system-ui, -apple-system, Segoe UI, Arial, sans-serif">Automation</text>
    </g>
  </g>

  <rect x="0" y="610" width="1200" height="65" fill="#FFFFFF" opacity="0.03"/>
</svg>
