<svg xmlns="http://www.w3.org/2000/svg" width="1200" height="675" viewBox="0 0 1200 675" role="img" aria-label="Jodo-UI Component Library project thumbnail">
  <defs>
    <linearGradient id="bg" x1="0" y1="0" x2="1" y2="1">
      <stop offset="0" stop-color="#050607"/>
      <stop offset="0.55" stop-color="#0D0F12"/>
      <stop offset="1" stop-color="#14171B"/>
    </linearGradient>

    <pattern id="grid" width="48" height="48" patternUnits="userSpaceOnUse">
      <path d="M48 0H0V48" fill="none" stroke="#FFFFFF" stroke-opacity="0.06" stroke-width="2"/>
    </pattern>

    <filter id="noise" x="-20%" y="-20%" width="140%" height="140%">
      <feTurbulence type="fractalNoise" baseFrequency="0.85" numOctaves="3" stitchTiles="stitch" />
      <feColorMatrix type="matrix"
        values="1 0 0 0 0
                0 1 0 0 0
                0 0 1 0 0
                0 0 0 0.10 0"/>
    </filter>

    <filter id="shadow" x="-20%" y="-20%" width="140%" height="140%">
      <feDropShadow dx="0" dy="10" stdDeviation="14" flood-color="#000000" flood-opacity="0.45"/>
    </filter>
  </defs>

  <!-- Background -->
  <rect width="1200" height="675" fill="url(#bg)"/>
  <rect width="1200" height="675" fill="url(#grid)"/>
  <rect width="1200" height="675" filter="url(#noise)" opacity="0.55"/>

  <!-- Right-side "storybook-like" panel -->
  <g transform="translate(690 120)" filter="url(#shadow)">
    <rect x="0" y="0" rx="18" ry="18" width="430" height="390" fill="#0A0B0D" opacity="0.88" stroke="#2B2F35"/>

    <!-- Sidebar -->
    <rect x="0" y="0" rx="18" ry="18" width="140" height="390" fill="#07080A" opacity="0.95" stroke="#1F2328"/>
    <g transform="translate(22 28)" fill="#FFFFFF" opacity="0.65">
      <rect x="0" y="0" width="96" height="10" rx="5"/>
      <rect x="0" y="28" width="76" height="10" rx="5" opacity="0.7"/>
      <rect x="0" y="56" width="88" height="10" rx="5" opacity="0.7"/>
      <rect x="0" y="84" width="60" height="10" rx="5" opacity="0.7"/>
      <rect x="0" y="112" width="84" height="10" rx="5" opacity="0.7"/>
      <rect x="0" y="140" width="72" height="10" rx="5" opacity="0.7"/>
    </g>

    <!-- Canvas -->
    <g transform="translate(165 30)">
      <rect x="0" y="0" width="240" height="46" rx="12" fill="#0E1013" stroke="#2B2F35"/>
      <rect x="16" y="16" width="82" height="14" rx="7" fill="#FFFFFF" opacity="0.75"/>
      <rect x="120" y="16" width="32" height="14" rx="7" fill="#FFFFFF" opacity="0.35"/>
      <rect x="160" y="16" width="56" height="14" rx="7" fill="#FFFFFF" opacity="0.35"/>

      <!-- Components grid -->
      <g transform="translate(0 70)">
        <rect x="0" y="0" width="112" height="92" rx="16" fill="#0E1013" stroke="#2B2F35"/>
        <rect x="16" y="18" width="66" height="10" rx="5" fill="#FFFFFF" opacity="0.70"/>
        <rect x="16" y="40" width="78" height="10" rx="5" fill="#FFFFFF" opacity="0.30"/>
        <rect x="16" y="62" width="52" height="14" rx="7" fill="#FFFFFF" opacity="0.16" stroke="#2B2F35"/>

        <rect x="128" y="0" width="112" height="92" rx="16" fill="#0E1013" stroke="#2B2F35"/>
        <rect x="144" y="18" width="70" height="10" rx="5" fill="#FFFFFF" opacity="0.70"/>
        <rect x="144" y="40" width="84" height="10" rx="5" fill="#FFFFFF" opacity="0.30"/>
        <rect x="144" y="62" width="62" height="14" rx="7" fill="#FFFFFF" opacity="0.16" stroke="#2B2F35"/>

        <rect x="0" y="110" width="240" height="100" rx="16" fill="#0E1013" stroke="#2B2F35"/>
        <rect x="16" y="132" width="92" height="10" rx="5" fill="#FFFFFF" opacity="0.70"/>
        <rect x="16" y="154" width="200" height="10" rx="5" fill="#FFFFFF" opacity="0.26"/>
        <rect x="16" y="176" width="168" height="10" rx="5" fill="#FFFFFF" opacity="0.22"/>
      </g>

      <!-- Token chips -->
      <g transform="translate(0 300)" opacity="0.95">
        <rect x="0" y="0" rx="16" ry="16" width="106" height="34" fill="#0E1013" stroke="#2B2F35"/>
        <text x="18" y="23" fill="#FFFFFF" opacity="0.85" font-size="14" font-weight="700"
          font-family="Montserrat, Inter, system-ui, -apple-system, Segoe UI, Arial, sans-serif">Vite</text>

        <rect x="118" y="0" rx="16" ry="16" width="122" height="34" fill="#0E1013" stroke="#2B2F35"/>
        <text x="136" y="23" fill="#FFFFFF" opacity="0.85" font-size="14" font-weight="700"
          font-family="Montserrat, Inter, system-ui, -apple-system, Segoe UI, Arial, sans-serif">Storybook</text>
      </g>
    </g>
  </g>

  <!-- Text -->
  <g transform="translate(90 190)">
    <text x="0" y="0" fill="#FFFFFF" font-size="54" font-weight="800"
      font-family="Montserrat, Inter, system-ui, -apple-system, Segoe UI, Arial, sans-serif" letter-spacing="0.4">
      Jodo-UI
    </text>
    <text x="0" y="48" fill="#FFFFFF" opacity="0.72" font-size="22" font-weight="600"
      font-family="Montserrat, Inter, system-ui, -apple-system, Segoe UI, Arial, sans-serif">
      Component Library " Design System " Documentation
    </text>

    <!-- Tags (grayscale only) -->
    <g transform="translate(0 92)">
      <rect x="0" y="0" rx="16" ry="16" width="156" height="38" fill="#0A0B0D" stroke="#2B2F35" opacity="0.98"/>
      <text x="18" y="26" fill="#FFFFFF" opacity="0.88" font-size="16" font-weight="700"
        font-family="Montserrat, Inter, system-ui, -apple-system, Segoe UI, Arial, sans-serif">Reusable UI</text>

      <rect x="172" y="0" rx="16" ry="16" width="164" height="38" fill="#0A0B0D" stroke="#2B2F35" opacity="0.98"/>
      <text x="190" y="26" fill="#FFFFFF" opacity="0.88" font-size="16" font-weight="700"
        font-family="Montserrat, Inter, system-ui, -apple-system, Segoe UI, Arial, sans-serif">Theming</text>

      <rect x="352" y="0" rx="16" ry="16" width="190" height="38" fill="#0A0B0D" stroke="#2B2F35" opacity="0.98"/>
      <text x="370" y="26" fill="#FFFFFF" opacity="0.88" font-size="16" font-weight="700"
        font-family="Montserrat, Inter, system-ui, -apple-system, Segoe UI, Arial, sans-serif">Accessibility</text>
    </g>
  </g>

  <rect x="0" y="610" width="1200" height="65" fill="#FFFFFF" opacity="0.03"/>
</svg>
