<svg xmlns="http://www.w3.org/2000/svg" width="1200" height="675" viewBox="0 0 1200 675" role="img" aria-label="All-Settings Consolidation - JODO thumbnail">
  <defs>
    <linearGradient id="bg" x1="0" y1="0" x2="1" y2="1">
      <stop offset="0" stop-color="#050607"/>
      <stop offset="0.6" stop-color="#0E1013"/>
      <stop offset="1" stop-color="#14171B"/>
    </linearGradient>
    <pattern id="grid" width="52" height="52" patternUnits="userSpaceOnUse">
      <path d="M52 0H0V52" fill="none" stroke="#FFFFFF" stroke-opacity="0.06" stroke-width="2"/>
    </pattern>
    <filter id="noise" x="-20%" y="-20%" width="140%" height="140%">
      <feTurbulence type="fractalNoise" baseFrequency="0.85" numOctaves="3" stitchTiles="stitch" />
      <feColorMatrix type="matrix"
        values="1 0 0 0 0
                0 1 0 0 0
                0 0 1 0 0
                0 0 0 0.10 0"/>
    </filter>
    <filter id="shadow" x="-20%" y="-20%" width="140%" height="140%">
      <feDropShadow dx="0" dy="10" stdDeviation="14" flood-color="#000000" flood-opacity="0.45"/>
    </filter>
  </defs>

  <rect width="1200" height="675" fill="url(#bg)"/>
  <rect width="1200" height="675" fill="url(#grid)"/>
  <rect width="1200" height="675" filter="url(#noise)" opacity="0.55"/>

  <!-- Settings hub UI -->
  <g transform="translate(660 120)" filter="url(#shadow)">
    <rect x="0" y="0" rx="18" ry="18" width="470" height="390" fill="#0A0B0D" opacity="0.88" stroke="#2B2F35"/>

    <!-- Search bar -->
    <rect x="26" y="28" width="418" height="50" rx="16" fill="#07080A" stroke="#2B2F35"/>
    <circle cx="56" cy="53" r="10" fill="none" stroke="#FFFFFF" stroke-opacity="0.55" stroke-width="3"/>
    <path d="M63 60 L74 71" stroke="#FFFFFF" stroke-opacity="0.55" stroke-width="3" stroke-linecap="round"/>
    <rect x="84" y="46" width="220" height="14" rx="7" fill="#FFFFFF" opacity="0.22"/>

    <!-- Left categories -->
    <rect x="26" y="96" width="158" height="266" rx="16" fill="#07080A" stroke="#1F2328"/>
    <g transform="translate(44 118)" fill="#FFFFFF" opacity="0.22">
      <rect x="0" y="0" width="118" height="12" rx="6"/>
      <rect x="0" y="34" width="92" height="12" rx="6"/>
      <rect x="0" y="68" width="110" height="12" rx="6"/>
      <rect x="0" y="102" width="86" height="12" rx="6"/>
      <rect x="0" y="136" width="116" height="12" rx="6"/>
      <rect x="0" y="170" width="96" height="12" rx="6"/>
      <rect x="0" y="204" width="108" height="12" rx="6"/>
    </g>

    <!-- Right results -->
    <rect x="202" y="96" width="242" height="266" rx="16" fill="#07080A" stroke="#1F2328"/>
    <g transform="translate(220 118)">
      <rect x="0" y="0" width="206" height="66" rx="14" fill="#0E1013" stroke="#2B2F35"/>
      <rect x="14" y="18" width="132" height="10" rx="5" fill="#FFFFFF" opacity="0.55"/>
      <rect x="14" y="40" width="170" height="10" rx="5" fill="#FFFFFF" opacity="0.18"/>

      <rect x="0" y="84" width="206" height="66" rx="14" fill="#0E1013" stroke="#2B2F35"/>
      <rect x="14" y="102" width="150" height="10" rx="5" fill="#FFFFFF" opacity="0.55"/>
      <rect x="14" y="124" width="176" height="10" rx="5" fill="#FFFFFF" opacity="0.18"/>

      <rect x="0" y="168" width="206" height="66" rx="14" fill="#0E1013" stroke="#2B2F35"/>
      <rect x="14" y="186" width="124" height="10" rx="5" fill="#FFFFFF" opacity="0.55"/>
      <rect x="14" y="208" width="168" height="10" rx="5" fill="#FFFFFF" opacity="0.18"/>
    </g>
  </g>

  <!-- Text -->
  <g transform="translate(90 200)">
    <text x="0" y="0" fill="#FFFFFF" font-size="52" font-weight="800"
      font-family="Montserrat, Inter, system-ui, -apple-system, Segoe UI, Arial, sans-serif">
      All-Settings Consolidation
    </text>
    <text x="0" y="48" fill="#FFFFFF" opacity="0.72" font-size="22" font-weight="600"
      font-family="Montserrat, Inter, system-ui, -apple-system, Segoe UI, Arial, sans-serif">
      Searchable hub " Faster discovery " JODO
    </text>
    <g transform="translate(0 92)">
      <rect x="0" y="0" rx="16" ry="16" width="168" height="38" fill="#0A0B0D" stroke="#2B2F35"/>
      <text x="18" y="26" fill="#FFFFFF" opacity="0.86" font-size="16" font-weight="700"
        font-family="Montserrat, Inter, system-ui, -apple-system, Segoe UI, Arial, sans-serif">Search</text>
      <rect x="184" y="0" rx="16" ry="16" width="190" height="38" fill="#0A0B0D" stroke="#2B2F35"/>
      <text x="202" y="26" fill="#FFFFFF" opacity="0.86" font-size="16" font-weight="700"
        font-family="Montserrat, Inter, system-ui, -apple-system, Segoe UI, Arial, sans-serif">Performance</text>
      <rect x="390" y="0" rx="16" ry="16" width="182" height="38" fill="#0A0B0D" stroke="#2B2F35"/>
      <text x="408" y="26" fill="#FFFFFF" opacity="0.86" font-size="16" font-weight="700"
        font-family="Montserrat, Inter, system-ui, -apple-system, Segoe UI, Arial, sans-serif">UX</text>
    </g>
  </g>

  <rect x="0" y="610" width="1200" height="65" fill="#FFFFFF" opacity="0.03"/>
</svg>
