<svg xmlns="http://www.w3.org/2000/svg" width="1200" height="675" viewBox="0 0 1200 675" role="img" aria-label="Nexus Global United project thumbnail">
  <defs>
    <linearGradient id="bg2" x1="0" y1="0" x2="1" y2="1">
      <stop offset="0" stop-color="#070A0F"/>
      <stop offset="0.55" stop-color="#111B27"/>
      <stop offset="1" stop-color="#1B2F45"/>
    </linearGradient>

    <linearGradient id="accent" x1="0" y1="0" x2="1" y2="0">
      <stop offset="0" stop-color="#22C55E"/>
      <stop offset="0.5" stop-color="#38BDF8"/>
      <stop offset="1" stop-color="#F97316"/>
    </linearGradient>

    <pattern id="grid" width="56" height="56" patternUnits="userSpaceOnUse">
      <path d="M56 0H0V56" fill="none" stroke="#EAF2FF" stroke-opacity="0.07" stroke-width="2"/>
    </pattern>

    <filter id="softNoise2" x="-20%" y="-20%" width="140%" height="140%">
      <feTurbulence type="fractalNoise" baseFrequency="0.7" numOctaves="3" stitchTiles="stitch" />
      <feColorMatrix type="matrix"
        values="1 0 0 0 0
                0 1 0 0 0
                0 0 1 0 0
                0 0 0 0.10 0"/>
    </filter>

    <filter id="shadow2" x="-20%" y="-20%" width="140%" height="140%">
      <feDropShadow dx="0" dy="10" stdDeviation="14" flood-color="#000000" flood-opacity="0.35"/>
    </filter>
  </defs>

  <!-- Background -->
  <rect width="1200" height="675" fill="url(#bg2)"/>
  <rect width="1200" height="675" fill="url(#grid)"/>
  <rect width="1200" height="675" filter="url(#softNoise2)" opacity="0.55"/>

  <!-- Accent sweep -->
  <path d="M-40 585 C 220 470, 450 720, 740 600 S 1090 450, 1260 520 L 1260 720 L -40 720 Z"
    fill="url(#accent)" opacity="0.14"/>

  <!-- Industrial icon cluster -->
  <g transform="translate(690 150)" filter="url(#shadow2)">
    <rect x="0" y="0" rx="18" ry="18" width="420" height="330" fill="#0B1320" opacity="0.78" stroke="#213049"/>

    <!-- Pipes -->
    <g transform="translate(60 75)">
      <rect x="0" y="70" width="300" height="42" rx="21" fill="#111B27" stroke="#2B3A52"/>
      <circle cx="26" cy="91" r="16" fill="#0B1320" stroke="#2B3A52"/>
      <circle cx="274" cy="91" r="16" fill="#0B1320" stroke="#2B3A52"/>

      <rect x="110" y="0" width="42" height="210" rx="21" fill="#111B27" stroke="#2B3A52"/>
      <circle cx="131" cy="26" r="16" fill="#0B1320" stroke="#2B3A52"/>
      <circle cx="131" cy="184" r="16" fill="#0B1320" stroke="#2B3A52"/>

      <rect x="210" y="140" width="110" height="42" rx="21" fill="#111B27" stroke="#2B3A52"/>
      <circle cx="230" cy="161" r="16" fill="#0B1320" stroke="#2B3A52"/>
      <circle cx="300" cy="161" r="16" fill="#0B1320" stroke="#2B3A52"/>

      <!-- Flow indicator -->
      <path d="M40 91 H250" stroke="url(#accent)" stroke-width="4" stroke-linecap="round" opacity="0.85"/>
      <path d="M131 42 V168" stroke="url(#accent)" stroke-width="4" stroke-linecap="round" opacity="0.65"/>
    </g>

    <!-- Label badge -->
    <g transform="translate(40 30)">
      <rect x="0" y="0" rx="14" ry="14" width="190" height="34" fill="#111B27" stroke="#2B3A52"/>
      <rect x="12" y="12" width="22" height="10" rx="5" fill="url(#accent)"/>
      <text x="42" y="23" fill="#EAF2FF" font-size="14" font-weight="800"
        font-family="Montserrat, Inter, system-ui, -apple-system, Segoe UI, Arial, sans-serif">
        Industrial Catalog
      </text>
    </g>
  </g>

  <!-- Text -->
  <g transform="translate(90 170)">
    <text x="0" y="0" fill="#EAF2FF" font-size="52" font-weight="800"
      font-family="Montserrat, Inter, system-ui, -apple-system, Segoe UI, Arial, sans-serif" letter-spacing="0.2">
      Nexus Global United
    </text>
    <text x="0" y="48" fill="#B9C9E6" font-size="22" font-weight="600"
      font-family="Montserrat, Inter, system-ui, -apple-system, Segoe UI, Arial, sans-serif">
      Industrial Solutions " Oil &amp; Gas " Product Catalog
    </text>

    <!-- Tags -->
    <g transform="translate(0 92)">
      <rect x="0" y="0" rx="16" ry="16" width="132" height="38" fill="#0B1320" stroke="#2A3A5C" opacity="0.95"/>
      <text x="18" y="26" fill="#EAF2FF" font-size="16" font-weight="700"
        font-family="Montserrat, Inter, system-ui, -apple-system, Segoe UI, Arial, sans-serif">Web</text>

      <rect x="148" y="0" rx="16" ry="16" width="196" height="38" fill="#0B1320" stroke="#2A3A5C" opacity="0.95"/>
      <text x="166" y="26" fill="#EAF2FF" font-size="16" font-weight="700"
        font-family="Montserrat, Inter, system-ui, -apple-system, Segoe UI, Arial, sans-serif">Catalog</text>

      <rect x="360" y="0" rx="16" ry="16" width="210" height="38" fill="#0B1320" stroke="#2A3A5C" opacity="0.95"/>
      <text x="378" y="26" fill="#EAF2FF" font-size="16" font-weight="700"
        font-family="Montserrat, Inter, system-ui, -apple-system, Segoe UI, Arial, sans-serif">Corporate</text>
    </g>
  </g>

  <rect x="0" y="610" width="1200" height="65" fill="#FFFFFF" opacity="0.03"/>
</svg>
